<svg xmlns="http://www.w3.org/2000/svg" xmlns:xlink="http://www.w3.org/1999/xlink" width="1279.671" height="580.842" viewBox="0 0 1279.671 580.842">
  <defs>
    <linearGradient id="linear-gradient" y1="0.5" x2="1" y2="0.5" gradientUnits="objectBoundingBox">
      <stop offset="0" stop-color="#ceefe5"/>
      <stop offset="1" stop-color="#27c888"/>
    </linearGradient>
    <linearGradient id="linear-gradient-2" y1="0.5" x2="1" y2="0.5" gradientUnits="objectBoundingBox">
      <stop offset="0" stop-color="#3e815b"/>
      <stop offset="1" stop-color="#277455"/>
    </linearGradient>
    <linearGradient id="linear-gradient-5" y1="0.5" x2="1" y2="0.5" gradientUnits="objectBoundingBox">
      <stop offset="0" stop-color="#cbce55"/>
      <stop offset="1" stop-color="#217b4f"/>
    </linearGradient>
    <linearGradient id="linear-gradient-11" y1="0.5" x2="1" y2="0.5" gradientUnits="objectBoundingBox">
      <stop offset="0" stop-color="#fdb43c"/>
      <stop offset="1" stop-color="#f47a11"/>
    </linearGradient>
    <linearGradient id="linear-gradient-23" x1="-0.973" y1="0.5" x2="0.027" y2="0.5" xlink:href="#linear-gradient-5"/>
    <linearGradient id="linear-gradient-24" x1="9.586" y1="0.5" x2="10.586" y2="0.5" xlink:href="#linear-gradient-11"/>
    <linearGradient id="linear-gradient-25" x1="16.433" y1="0.5" x2="17.433" y2="0.5" xlink:href="#linear-gradient-5"/>
  </defs>
  <g id="Groupe_1854" data-name="Groupe 1854" transform="translate(-1156.791 -254.896)">
    <g id="Groupe_1853" data-name="Groupe 1853" transform="translate(1221.965 254.896)">
      <g id="Groupe_1798" data-name="Groupe 1798" transform="translate(731.62 260.37)">
        <path id="Tracé_1409" data-name="Tracé 1409" d="M3018.385,1227.941s-8.479,4.994-3.276,14.672c0,0-7.422-1.359-9.026-3.575a5.824,5.824,0,0,0,.462,1.389s-6.825-1.547-9.057-4.393,8.717-36.96,26.456-28.125c0,0,16.221,3.01,9.868,21.018s-.35,19.6-.35,19.6a8.836,8.836,0,0,1-2.694.167s-1.06-.761-1.119-1.474a4.346,4.346,0,0,0,.177,1.491s-6.643-1.1-9.232-4.405S3016.456,1231.492,3018.385,1227.941Z" transform="translate(-2954.081 -1206.45)" fill="#070707"/>
        <path id="Tracé_1410" data-name="Tracé 1410" d="M3016.721,1317.068l-.031.011C3016.638,1317.072,3016.649,1317.068,3016.721,1317.068Z" transform="translate(-2964.658 -1266.585)" fill="#ffae73"/>
        <path id="Tracé_1411" data-name="Tracé 1411" d="M3037.4,1286.293c.249,2.233.547,4.235.678,5.189.3,2.138-19.992.747-21.285.743.9-.393,3.655-9.123,4.525-12.453,1.056-4.039,1.886-8.4,1.886-8.4l14.327.905.853.053a49.733,49.733,0,0,0-1.165,5.51c-.035.23-.069.464-.1.69A37.23,37.23,0,0,0,3037.4,1286.293Z" transform="translate(-2964.733 -1241.742)" fill="#f5c99d"/>
        <path id="Tracé_1412" data-name="Tracé 1412" d="M3024.232,1236.779s-2.323-7.366-1.852-13.015c.335-4.033,6.077-17.79,19.879-11.936a20.164,20.164,0,0,1,7.274,5.2c2.558,2.929,5.851,8.661-2.474,19.789l-2.42,3.862Z" transform="translate(-2967.735 -1208.597)" fill="#070707"/>
        <path id="Tracé_1413" data-name="Tracé 1413" d="M3044.944,1286.781c-10.023-2.936-14.276-14.513-14.276-14.513,4.24.124,9.761,3.067,14.1,6.057-.035.23-.069.464-.1.69A37.2,37.2,0,0,0,3044.944,1286.781Z" transform="translate(-2972.274 -1242.23)" fill="#d8a982"/>
        <path id="Tracé_1414" data-name="Tracé 1414" d="M3045.07,1255.707s-18.107-4.475-15.146-15.708,2.618-19.376,14.3-16.994,12.793,7.258,12.717,11.248S3049.856,1256.582,3045.07,1255.707Z" transform="translate(-2971.692 -1215.224)" fill="#f5c99d"/>
        <path id="Tracé_1415" data-name="Tracé 1415" d="M3047.222,1223.1s-8.424,11.868-16.515,11.811-10.839-2.957-10.839-2.957a22.187,22.187,0,0,0,10.371-10.816S3045.159,1215.847,3047.222,1223.1Z" transform="translate(-2966.404 -1213.423)" fill="#070707"/>
        <path id="Tracé_1416" data-name="Tracé 1416" d="M3076.5,1227.624s2.908,3.918,3.049,7.015-1.012,9.091.757,9.346c0,0,6.089-7.97,3.251-14.143C3080.552,1223.3,3076.5,1227.624,3076.5,1227.624Z" transform="translate(-2997.192 -1217.198)" fill="#070707"/>
        <path id="Tracé_1417" data-name="Tracé 1417" d="M3056.428,1225.885s-7.169,12.866-17.9,14.754c0,0,11.8-5.946,15.024-14.838S3056.428,1225.885,3056.428,1225.885Z" transform="translate(-2976.55 -1214.832)" fill="#070707"/>
        <path id="Tracé_1418" data-name="Tracé 1418" d="M3057.31,1279.359s.226,1.71,1.316,2.115,3.987,1.137,4.281.956a14.567,14.567,0,0,0,1.379-1.515S3059.722,1279.164,3057.31,1279.359Z" transform="translate(-2986.758 -1246.077)" fill="#fff"/>
        <path id="Tracé_1419" data-name="Tracé 1419" d="M3002.428,1588.2q-.345,1.442-.686,2.854c-1.365,5.672-2.636,10.933-3.436,15.334-1.041,5.729-1.286,9.99.079,11.782,5.623,7.373,0,65.882,0,65.882l-6.4,6.592s-11.125-57.766-14.143-66.817c-1.373-4.114-3.371-21.689-5.136-39.63q-.136-1.345-.264-2.692c-.305-3.137-.6-6.264-.883-9.315-1.583-16.975-2.768-31.51-2.768-31.51s11.8-8.3,22.522-9.221c6.317-.551,12.257,1.459,15.191,9.221C3010.778,1551.973,3006.448,1571.471,3002.428,1588.2Z" transform="translate(-2938.637 -1383.088)" fill="#f5c99d"/>
        <path id="Tracé_1420" data-name="Tracé 1420" d="M3011.941,1588.2c-8.769-6.332-21.1-17.6-25.582-36.073-.856-9.183,6.385-17.91,14.467-20.667,6.316-.551,12.257,1.459,15.191,9.221C3020.291,1551.973,3015.961,1571.471,3011.941,1588.2Z" transform="translate(-2948.15 -1383.088)" fill="#d8a982"/>
        <path id="Tracé_1421" data-name="Tracé 1421" d="M3108.566,1411.417l43.091,11.13v5.031s-42.882-.5-45.647-5.28S3108.566,1411.417,3108.566,1411.417Z" transform="translate(-3012.799 -1317.875)" fill="#f5c99d"/>
        <path id="Tracé_1422" data-name="Tracé 1422" d="M3101,1630.174l-2.014,8.316s-58.29-30.107-65.829-35.888c-3.029-2.323-7.03-14.938-10.737-29.209-5.521-21.271-10.386-46.219-10.386-46.219s8.173-31.427,30.047-12.193c13.09,11.51,11.053,33.69,9.62,50.94-.955,11.575-1.641,20.932,2.7,23.356,8.467,4.725,33.313,26.494,41.176,41.47Z" transform="translate(-2962.145 -1370.788)" fill="#f5c99d"/>
        <path id="Tracé_1423" data-name="Tracé 1423" d="M2952.244,1387.064c-15.223-3.874-31.957-27.49-31.957-27.49l4.287-3.719c4.438,5.232,22.889,14.243,22.889,14.243-.1-4.788.026-9.155.329-13.13,2.047-27.016,12.232-36.017,15.011-37.991a6.775,6.775,0,0,1,.706-.455s.01.2.027.568c.04.8.114,2.42.19,4.639C2964.291,1340.265,2964.965,1390.305,2952.244,1387.064Z" transform="translate(-2912.269 -1267.376)" fill="#f5c99d"/>
        <path id="Tracé_1424" data-name="Tracé 1424" d="M2986.121,1352.061c-.788,19.273-3.672,38.357-12.063,37.129-10.285-1.5-12.964-11.1-13.511-18.237a41.008,41.008,0,0,1,.151-7.929s5.061-.023,5.881-.778c3.888-3.592,2.733-38.811,4.657-42.467s14.411-6,14.411-6S2986.907,1333.012,2986.121,1352.061Z" transform="translate(-2934.091 -1264.794)" fill="#fd9c28"/>
        <path id="Tracé_1425" data-name="Tracé 1425" d="M2986.264,1381.909c-.789,19.273-3.672,38.357-12.063,37.129-10.285-1.5-12.964-11.1-13.51-18.237,2.525-.127,6.971-.743,8.738-3.437,2.529-3.857,10.419-28.684,10.419-28.684S2982.95,1374.254,2986.264,1381.909Z" transform="translate(-2934.233 -1294.642)" fill="#e65924"/>
        <path id="Tracé_1426" data-name="Tracé 1426" d="M3061.307,1350.24c2.788,3.959,1.253,11.636-4.594,17.817-3.63,3.838-8.548,6.109-16.552,4.929-3.489-.514-13.237-6.018-14.261-12.728-.184-1.217-.287-1.928-.287-1.928s-4.437,4.444-4.6,5.283c-.075.377-.458,3.735-.517,4.194a16.163,16.163,0,0,0,.326,2.594s-21.2,9.272-38.73-1.287c0,0-5-42.828-1.408-49.954,1.785-3.541,11.789-10.436,15.272-13.482a5.567,5.567,0,0,0,1.363-4.082c-.177-1.124,1.117-3.019,2.2-2.673,2.1.671,8.023,3.6,12.195,2.485,2.077-.552,4.713-2.953,6.725-2.4,2.462.672-.137,6.6,1.257,6.674,1.923.094,12.306,2.171,13.178,3.846.3.584,3.286,8.485,7.026,18.942a.127.127,0,0,1,.006.027C3046.921,1348.111,3057.216,1344.43,3061.307,1350.24Z" transform="translate(-2944.394 -1256.699)" fill="#fd9c28"/>
        <path id="Tracé_1427" data-name="Tracé 1427" d="M3058.8,1409.916s-.516-16.337-1.836-16.138-20.365,18.532-15.84,25.865S3058.8,1409.916,3058.8,1409.916Z" transform="translate(-2977.581 -1308.285)" fill="#e65924"/>
        <path id="Tracé_1428" data-name="Tracé 1428" d="M3032.5,1506.992a126.614,126.614,0,0,1-18.154,3.763c-13.389,1.851-32.107,2.519-48.821-3.763,0,0-1.378-24.874,2.583-37.839s5.812-19.173,5.812-19.173,15.869,3.979,31.985.893a52.257,52.257,0,0,0,6.759-1.747s9.942,21.106,12.675,30.151S3032.5,1506.992,3032.5,1506.992Z" transform="translate(-2936.738 -1338.375)" fill="#01483f"/>
        <path id="Tracé_1429" data-name="Tracé 1429" d="M3076.025,1506.992a126.576,126.576,0,0,1-18.153,3.763c-19.829-11.244-10.161-58.558-10.161-58.558q.883-.715,1.719-1.324a52.25,52.25,0,0,0,6.76-1.747s9.941,21.106,12.675,30.151S3076.025,1506.992,3076.025,1506.992Z" transform="translate(-2980.258 -1338.375)" fill="#002822"/>
        <g id="Groupe_1797" data-name="Groupe 1797" transform="translate(36.319 106.43)">
          <path id="Tracé_1430" data-name="Tracé 1430" d="M3000.018,1449.514c-11.755,0-16.6-4.045-16.959-4.321l-.76-5.536c.113.084,15.886,9.555,40.3.484l-.517,4.194C3012.689,1447.824,3006.123,1449.514,3000.018,1449.514Z" transform="translate(-2982.298 -1439.657)" fill="#070707"/>
        </g>
        <path id="Tracé_1431" data-name="Tracé 1431" d="M3206.98,1430.323s7.906-3.894,11.048-4.271,8.424-.5,8.424,0-5.657,4.016-7.166,4.271-4.4,2.391-3.52,2.643,5.531-.817,5.594,0-2.828,1.32-3.332,1.949-2.262,1.383-5.091,1.005-5.958-.566-5.958-.566Z" transform="translate(-3068.123 -1325.651)" fill="#f5c99d"/>
        <path id="Tracé_1432" data-name="Tracé 1432" d="M2915.014,1386.19l-4.3,3.749s-7.634-5.577-8-7.863v-.229c0-2.377,4.845-7.314,8.868-7.5a2.171,2.171,0,0,1,1.1.274c2.144,1.34,2.4,6.926,2.38,9.816C2915.057,1385.5,2915.014,1386.19,2915.014,1386.19Z" transform="translate(-2902.717 -1297.725)" fill="#f5c99d"/>
        <path id="Tracé_1433" data-name="Tracé 1433" d="M3113.373,1698.277l-2.013,8.316s-58.291-30.107-65.829-35.888c-3.029-2.323-7.03-14.938-10.737-29.209,4.974,1.021,15.718,1.564,29.281-7.472-.955,11.574-1.641,20.931,2.7,23.356,8.467,4.726,33.313,26.494,41.176,41.47Z" transform="translate(-2974.517 -1438.891)" fill="#01483f"/>
        <path id="Tracé_1434" data-name="Tracé 1434" d="M3212.04,1768.254s-.018,0-.052-.012a3.637,3.637,0,0,1-2.254-2.368c-.524-1.255-.681-2.286-1.162-3.528l-1.968-3.4c-2.059-2.71-2.781-2.075-2.781-2.075s-.538.69-1.333,1.6c-1.313,1.5-3.327,3.6-4.752,4.134a4.14,4.14,0,0,0-2.036,1.594,3.93,3.93,0,0,0-.608,1.4s4.226.736,3.859,2.819c-.718,4.031-.549,4.765-.475,4.9l.025.027s7.208,3.773,9.514,4.514c4.1,1.314,6.245,4.1,7.575,5.376a2.372,2.372,0,0,0,2.018.636c1.082-.17,2.484-.518,2.792-1.181Z" transform="translate(-3061.661 -1505.639)" fill="#e65924"/>
        <path id="Tracé_1435" data-name="Tracé 1435" d="M3003.048,1681.095c5.623,7.373,0,65.882,0,65.882l-6.4,6.593s-11.126-57.766-14.142-66.817c-1.373-4.114-3.371-21.689-5.137-39.63,5.333,2.38,18.344,7.562,29.036,6.857-1.365,5.672-2.637,10.933-3.436,15.334C3001.928,1675.042,3001.682,1679.3,3003.048,1681.095Z" transform="translate(-2943.3 -1446.011)" fill="#002822"/>
        <path id="Tracé_1436" data-name="Tracé 1436" d="M3015.814,1872.858l-3.453,1.869c-1.255.444-2.29.572-3.56,1.059a7.355,7.355,0,0,0-3.351,2.454c-.974,3.959-2.357,3.708-2.357,3.708l-13.871.131c-.655-.327.454-3.127.985-3.65,1.311-1.293,5.236-.643,6.667-4.7.808-2.282,4.788-9.379,4.788-9.379l.028-.025c.134-.069.872-.218,4.88.617,2.071.428,2.93-3.776,2.93-3.776a3.914,3.914,0,0,1,1.378.648,4.139,4.139,0,0,1,1.534,2.081c.5,1.44,2.532,3.514,3.994,4.87.887.821,1.562,1.379,1.562,1.379S3018.584,1870.879,3015.814,1872.858Z" transform="translate(-2949.635 -1562.369)" fill="#e65924"/>
      </g>
      <g id="Groupe_1801" data-name="Groupe 1801" transform="translate(863.405 272.901)">
        <path id="Tracé_1437" data-name="Tracé 1437" d="M3206.4,1473.065s-3.838-2.807-5.542-2.9-5.355-1.678-5.5-.6,2.68,1.949,2.835,3.094-7.041,4.883-6.693,6.047a4.666,4.666,0,0,0,5.661,2.489c2.834-1.072,9.787-4.718,11.5-4.348S3206.4,1473.065,3206.4,1473.065Z" transform="translate(-3191.481 -1361.81)" fill="#f5c99d"/>
        <path id="Tracé_1438" data-name="Tracé 1438" d="M3314.591,1883.816h32.633c2.338-1.585-.63-17.087-.63-17.087s-8.907-3.379-10.445,3.493-11.344,9.051-16.531,9.889C3316.068,1880.688,3314.946,1882.637,3314.591,1883.816Z" transform="translate(-3258.407 -1577.474)" fill="#002822"/>
        <path id="Tracé_1439" data-name="Tracé 1439" d="M3333.83,1555.623s1.467,18.3,3.19,40.3c2.343,29.881,8.663,103.967,8.663,103.967s4.143,3.535,13.32,1.6a290.088,290.088,0,0,0,10.147-54.73q.053-.718.108-1.441c2.173-29.7,5.552-92.23,5.552-92.23Z" transform="translate(-3268.866 -1407.422)" fill="#fd9c28"/>
        <path id="Tracé_1440" data-name="Tracé 1440" d="M3332.732,1544.787s1.968,24.623,3.692,46.621l32.13,50.839q.054-.718.108-1.441c2.173-29.7,5.552-92.23,5.552-92.23Z" transform="translate(-3268.269 -1402.91)" fill="#e65924"/>
        <path id="Tracé_1441" data-name="Tracé 1441" d="M3374.52,1330.271a14.545,14.545,0,0,0,10.039,1.351,20.827,20.827,0,0,0,6.8-2.871,20.079,20.079,0,0,0,2.744-2.067s-.12-.174-.323-.516c-1.051-1.8-4.238-8.26-2.82-18.645a7.356,7.356,0,0,0-2.563.424c-4.625,1.095-13.92,3.732-14.331,3.849h-.016s-.114,2.184-.5,6.1c-.031.345-.067.706-.1,1.079-.047.459-.094.946-.152,1.446C3372.868,1324.491,3374.52,1330.271,3374.52,1330.271Z" transform="translate(-3290.283 -1273.903)" fill="#f5c99d"/>
        <path id="Tracé_1442" data-name="Tracé 1442" d="M3373.946,1318.453c6.9,1.583,17.2-8.609,17.2-8.609a10.88,10.88,0,0,0-2.36-1.339c-4.624,1.095-13.919,3.732-14.331,3.849h-.016S3374.329,1314.538,3373.946,1318.453Z" transform="translate(-3290.674 -1274.46)" fill="#d8a982"/>
        <path id="Tracé_1443" data-name="Tracé 1443" d="M3366.527,1281.969a35.165,35.165,0,0,0,6.458,1.505c5.291.714,12.25.293,14.436-6.109,3.682-10.777,8.385-17.239-2.45-21.64-5.8-2.355-9.511-2.481-12.031-1.582a8.714,8.714,0,0,0-4.458,3.859C3366.377,1261.3,3362.145,1280.083,3366.527,1281.969Z" transform="translate(-3285.601 -1244.627)" fill="#f5c99d"/>
        <g id="Groupe_1799" data-name="Groupe 1799" transform="translate(73.816 135.531)">
          <path id="Tracé_1444" data-name="Tracé 1444" d="M3526.813,1839.995s2.855,5.819,2.658,9.012c-.149,2.4-1.513,5.277-2.6,7.727a6.21,6.21,0,0,1-2.834,3.07c-2.143,1.088-5.442,3.317-6.321,7.024h14.51s6.1-12.235,10.449-14.014c3.769-1.542,3.751-7.726-.605-10.162-2.114-1.182-6.054-7.826-6.054-7.826Z" transform="translate(-3442.647 -1696.114)" fill="#002822"/>
          <path id="Tracé_1445" data-name="Tracé 1445" d="M3353.225,1537.261s25.2,76.665,38.589,87.3,46.069,53.551,46.069,53.551,9.45-4.331,11.026-8.663c0,0-24.61-56.406-36.423-60.827-10.46-3.915-2.953-64.8-24.26-75.413C3374.156,1526.2,3353.225,1537.261,3353.225,1537.261Z" transform="translate(-3353.225 -1530.882)" fill="#fd9c28"/>
        </g>
        <path id="Tracé_1446" data-name="Tracé 1446" d="M3354.4,1248.134c6.274,4.509,14.953.076,17.65,1.276s3.179,5.717,3.228,7.152.238,2.649,3.9,1.79a1.778,1.778,0,0,1,1.329.079c1.518.9-.422,5.266-1.008,6.211,0,0-.842,3.127,1.027,4.649.226.182,3.9,1.786,12.743-11.751a12.576,12.576,0,0,0,.57-11.522c-2.145-4.609-11.11-9.064-18.712-11.426-2.849-.885-4.962-.853-6.614-.246-2.756,1.007-4.227,3.612-5.685,6.229C3360.381,1244.971,3354.4,1248.134,3354.4,1248.134Z" transform="translate(-3280.048 -1233.907)" fill="#45391d"/>
        <path id="Tracé_1447" data-name="Tracé 1447" d="M3296.573,1369.223c8.812-21.442-11.283-25.661-20.1-19.729-6.093,4.1-8.6,10.317-10.819,16.759-2.632,7.627-7,18.5-12.828,26.842v0l-.005,0-32.494,11.4,1.536,6.84c.91,1.371,27.261-.186,32.637-2.388C3254.5,1408.942,3284.717,1398.074,3296.573,1369.223Z" transform="translate(-3207.165 -1295.413)" fill="#bda24d"/>
        <path id="Tracé_1448" data-name="Tracé 1448" d="M3330.553,1433.94a103.508,103.508,0,0,0,30.057,4.943,75.06,75.06,0,0,0,11.483-1.225c3.839-.649,6.873-1.307,6.873-1.307,3.288-.759,6.922-2.791,6.435-6.542-1.475-11.394-.522-41.243-1.279-59.884a10.032,10.032,0,0,1,2.276-6.181s.005,0,.005-.006c.38-.415-3.066-19.284-6.847-22.812-2.186-2.04-12.332-3.084-13.1-2.92-.231-.05-.462-.1-.7-.145,0,0-10.508,5.922-18.31,1.538l-.221.035c-1.9.3-11.393,2.493-14.668,5.955-1.129,1.193-5.641,8.512-5.762,16.554-.174,11.2.263,23.936.263,23.94C3326.261,1398.083,3322.112,1433.94,3330.553,1433.94Z" transform="translate(-3264.248 -1290.419)" fill="#bda24d"/>
        <path id="Tracé_1449" data-name="Tracé 1449" d="M3391.382,1338.208s-11.627,11.992-19.939,9.535c0,0-1.107-1.62,2.637-2.139S3381.864,1345.3,3391.382,1338.208Z" transform="translate(-3289.23 -1290.608)" fill="#847d3d"/>
        <path id="Tracé_1450" data-name="Tracé 1450" d="M3411.437,1468.49c3.839-.649,6.874-1.307,6.874-1.307,3.288-.759,6.922-2.791,6.435-6.542-1.475-11.394-.522-41.242-1.279-59.884a10.034,10.034,0,0,1,2.276-6.182c-3.627,3.2-13.489,13.349-20.82,20.922C3394.747,1426.009,3393.995,1445.177,3411.437,1468.49Z" transform="translate(-3303.592 -1321.25)" fill="#847d3d"/>
        <path id="Tracé_1451" data-name="Tracé 1451" d="M3368.623,1300.483s-.227,1.4,3.017,2.509c0,0,2.723.935,3.221-.5A9.244,9.244,0,0,0,3368.623,1300.483Z" transform="translate(-3287.778 -1270.099)" fill="#fff"/>
        <path id="Tracé_1452" data-name="Tracé 1452" d="M3433.124,1344.577s17.989,8.228,33.912,64.9l-15.259-5.129c-1.476.8-28.613-31.1-27.891-38.774S3433.124,1344.577,3433.124,1344.577Z" transform="translate(-3317.815 -1294.07)" fill="#bda24d"/>
        <g id="Groupe_1800" data-name="Groupe 1800" transform="translate(75.511 97.693)">
          <path id="Tracé_1453" data-name="Tracé 1453" d="M3357.931,1471.717l2.731-.408c1.049-.293,1.853-.763,1.883-1.774l.16-5.33a1.974,1.974,0,0,0-1.31-1.94c-2.605-.88-4.934-3.021-4.371-6.271,0,0,1.5-7.793,1.537-8.023l10.057.3c.019.231,1.239,8.107,1.239,8.107.6,2.982-2.11,5.3-4.788,6.01a1.815,1.815,0,0,0-1.372,1.691l-.162,5.4c-.032,1.054.724,1.556,1.853,1.967l2.6.6c.2.006.213.254.011.248l-10.078-.3C3357.72,1471.989,3357.729,1471.809,3357.931,1471.717Z" transform="translate(-3356.939 -1447.971)" fill="#eaf7f9"/>
          <path id="Tracé_1454" data-name="Tracé 1454" d="M3358.039,1457.639a5.834,5.834,0,0,0,5.8,4.6c2.794.084,5.606-1.858,6.162-4.357a4.121,4.121,0,0,0,.051-1.49,10.26,10.26,0,0,0-.269-1.246c-.045-.156-1.1-6.877-1.1-6.877l-9.131-.274-1.422,7.227c-.027.114-.049.229-.067.344l-.026.124h.007c-.017.115-.037.226-.051.341A5.7,5.7,0,0,0,3358.039,1457.639Z" transform="translate(-3357.491 -1447.986)" fill="#eaf7f9"/>
          <path id="Tracé_1455" data-name="Tracé 1455" d="M3358.14,1469.037a5.833,5.833,0,0,0,5.8,4.6c2.793.083,5.605-1.857,6.161-4.357a24.8,24.8,0,0,0-6.653-.146A20.044,20.044,0,0,1,3358.14,1469.037Z" transform="translate(-3357.592 -1459.383)" fill="#e65924"/>
        </g>
        <path id="Tracé_1456" data-name="Tracé 1456" d="M3375.063,1482.378s-9.3-4.128-11.665-2.8-5.316,5.906-3.986,7.678,16.241,0,16.241,0Z" transform="translate(-3282.593 -1367.318)" fill="#f5c99d"/>
        <path id="Tracé_1457" data-name="Tracé 1457" d="M3428.337,1469.587s-35.647,4.408-37.3,5.294-5.194,4.337-4.013,8.665c0,0,42.9,1.45,49.613.934,10.928-.838,10.238-7.041,10.238-7.041Z" transform="translate(-3297.655 -1362.029)" fill="#bda24d"/>
      </g>
      <g id="Groupe_1804" data-name="Groupe 1804" transform="translate(434.753 246.218)">
        <path id="Tracé_1458" data-name="Tracé 1458" d="M2452.76,1863.7s1,16.1,4.111,16.328c.415.031,15.8.031,15.8.031l19.635-.114s-.129-4.731-5.868-5.731-15.346-5.033-18.823-12.619C2463.954,1853.615,2452.76,1863.7,2452.76,1863.7Z" transform="translate(-2361.24 -1546.781)" fill="#002822"/>
        <path id="Tracé_1459" data-name="Tracé 1459" d="M2267.751,1562.95a119.825,119.825,0,0,0,9.387,13.43c10.327,13.037,21.57,23.788,23.528,33.948a45.917,45.917,0,0,0,1.816,6.5c.818,2.328,1.828,4.775,3,7.305,4.382,9.52,10.936,20.187,17.48,29.882,11.311,16.762,19.667,28.926,19.667,28.926s2.2,2.616,10.047,2.616c7.222,0,10.473-4.3,10.473-4.3-.781-1.955-19.08-38.163-30.462-66.446-4.622-11.481-28.575-82.735-28.575-82.735s-42.713-16.18-47.149-5.7C2253.3,1535.03,2256.28,1543.5,2267.751,1562.95Z" transform="translate(-2253.996 -1364.301)" fill="#847d3d"/>
        <path id="Tracé_1460" data-name="Tracé 1460" d="M2355.692,1733.5s-13.568,8.719-12.251,11.551c.175.376,7.673,13.806,7.673,13.806l9.672,17.088s4.068-2.419,2.144-7.917-3.086-15.853,1.843-22.587C2369.956,1738.357,2355.692,1733.5,2355.692,1733.5Z" transform="translate(-2301.763 -1478.815)" fill="#184174"/>
        <path id="Tracé_1461" data-name="Tracé 1461" d="M2307.88,1278.487a72.108,72.108,0,0,1-17.234-5.4,5.273,5.273,0,0,1-1.951-8.159,33.568,33.568,0,0,0,6.4-12.959c.155-.615.3-1.247.423-1.892a38.659,38.659,0,0,0,.695-6.681l5.9,5.283,1.833,1.645,7.979,7.146s-.062,1.021-.305,2.918c-.209,1.683-.566,4.048-1.144,7-.213,1.093-.461,2.27-.74,3.521q.465.288.905.584A3.851,3.851,0,0,1,2307.88,1278.487Z" transform="translate(-2271.405 -1212.38)" fill="#f5c99d"/>
        <path id="Tracé_1462" data-name="Tracé 1462" d="M2321.409,1265.719s-.063,1.021-.306,2.918c-6.271-.054-13.6-4.462-16.134-8.527-.293-.473,4.04-1.063,8.46-1.537Z" transform="translate(-2280.89 -1220.633)" fill="#d8a982"/>
        <path id="Tracé_1463" data-name="Tracé 1463" d="M2321.243,1232.335s-21.047,2.374-22.324-10.757-4.853-21.667,8.531-23.737,16.486,2.685,17.979,6.963S2326.685,1231.378,2321.243,1232.335Z" transform="translate(-2276.845 -1187.345)" fill="#f5c99d"/>
        <path id="Tracé_1464" data-name="Tracé 1464" d="M2315.927,1524.17s65.461,34.391,67.519,50.339c1.512,11.721-60.941,60.7-60.941,60.7s-13.217-6.235-14.679-15.506c0,0,23.586-34.377,34.252-40.013,3.593-1.9-71.476-12.576-80.453-26.541s-5.763-25.714-5.763-25.714Z" transform="translate(-2253.898 -1365.019)" fill="#bda24d"/>
        <path id="Tracé_1465" data-name="Tracé 1465" d="M2316.294,1397.541a2.667,2.667,0,0,1-.109.351,4.135,4.135,0,0,1-1.3,1.562c-3.449,2.825-12.671,6.146-21.249,8.586-3.667,1.043-7.213,1.925-10.143,2.542-7.912,1.665-27.737,4.634-29.479-.36-2.013-5.786.322-39.2-1.452-61.173-2.1-26.859,5.885-51.782,17.139-59.762.845-.573,2.633,1.432,7.505,3.555a23.546,23.546,0,0,0,13.684,1.678l3.772,2.972c5.212,4.311,10.943,10.194,13.542,19.214,1.586,5.534,2.788,14.283,3.679,24.13.343,3.809.64,7.79.9,11.809.4,6.4.753,12.847.925,18.984,0,.117,0,.234.009.352l0,.226c.072.616.08,1.294.093,1.913.058,1.779.092,3.516.122,5.2.059,3.529.092,6.828.226,9.766.18,3.889,1.717,5.589,2.114,7.163A2.559,2.559,0,0,1,2316.294,1397.541Z" transform="translate(-2252.224 -1237.276)" fill="#fd9c28"/>
        <path id="Tracé_1466" data-name="Tracé 1466" d="M2291.556,1213.349s-5.93-5.376-7.048-11.935-6.523-18.8,3.7-23.826,25.326-.1,30.768,3.244,5.232,8.9.418,10.884c-6.837,2.823-13.692.209-16.422,3.244s-3.672,7.326-5.765,5.965-4.919-2.406-5.651.1,2.545,3.705,1.708,5.419C2292.781,1207.438,2290.23,1207.065,2291.556,1213.349Z" transform="translate(-2268.456 -1175.439)" fill="#070707"/>
        <path id="Tracé_1467" data-name="Tracé 1467" d="M2338,1256.664s2.009,2.3,3.072,2.422c.618.069,1.973.057,3,.037a1.751,1.751,0,0,0,1.633-1.24,4.42,4.42,0,0,1,.526-1.219A42.082,42.082,0,0,0,2338,1256.664Z" transform="translate(-2298.855 -1219.495)" fill="#fff"/>
        <g id="Groupe_1803" data-name="Groupe 1803" transform="translate(81.65 136.049)">
          <path id="Rectangle_709" data-name="Rectangle 709" d="M0,0H16.8a0,0,0,0,1,0,0V19.123a5.933,5.933,0,0,1-5.933,5.933H5.933A5.933,5.933,0,0,1,0,19.123V0A0,0,0,0,1,0,0Z" transform="translate(7.078)" fill="#067254"/>
          <g id="Groupe_1802" data-name="Groupe 1802" transform="translate(0 5.391)">
            <path id="Tracé_1468" data-name="Tracé 1468" d="M2434.591,1485.361a3.465,3.465,0,0,0-3.41,2.881,3.674,3.674,0,0,0-.047.577v5.848a3.419,3.419,0,0,0,1.05,2.473l0,0a3.436,3.436,0,0,0,2.4.98h5.731v-12.762Zm3.748,10.781h-3.748a1.477,1.477,0,0,1-1.475-1.475v-5.848a1.478,1.478,0,0,1,1.475-1.475h3.748Z" transform="translate(-2431.134 -1485.361)" fill="#067254"/>
          </g>
          <path id="Rectangle_710" data-name="Rectangle 710" d="M0,0H14.463a0,0,0,0,1,0,0V13.268a4.656,4.656,0,0,1-4.656,4.656H4.656A4.656,4.656,0,0,1,0,13.268V0A0,0,0,0,1,0,0Z" transform="translate(8.245 5.391)" fill="#fd9c28"/>
          <path id="Tracé_1469" data-name="Tracé 1469" d="M2449.2,1483.672a2.584,2.584,0,0,1,2.231-1.416c1.622-.052,1.832.848,3.244.555a7.135,7.135,0,0,1,4.187,0c1.465.544,4.749-.087,4.775.386s.51,1.047-1.06,1.1-4.291-.419-5.338,0a9.335,9.335,0,0,1-4.814,0C2451.326,1483.879,2449.218,1484.721,2449.2,1483.672Z" transform="translate(-2440.955 -1478.281)" fill="#fff"/>
        </g>
        <path id="Tracé_1470" data-name="Tracé 1470" d="M2411.113,1492.73c.279.418,13.849-3.432,14.9-2.221s.419,8.954-1.256,9.478-11.849-1.78-11.849-1.78Z" transform="translate(-2338.6 -1346.591)" fill="#f5c99d"/>
        <path id="Tracé_1471" data-name="Tracé 1471" d="M2326.189,1466.068a2.556,2.556,0,0,1-.109.352,4.127,4.127,0,0,1-1.3,1.562c-8.372-1.968-32.848-8.071-39.438-13.6-7.987-6.7-14.915-39.137-14.915-39.137l24.786,23.774,28.617,8.829c.059,3.529.092,6.828.226,9.766.18,3.889,1.716,5.589,2.114,7.163A2.552,2.552,0,0,1,2326.189,1466.068Z" transform="translate(-2262.119 -1305.804)" fill="#e65924"/>
        <path id="Tracé_1472" data-name="Tracé 1472" d="M2339.516,1421.667s-16.987-24.466-18.056-39.092l-4.164,37.692,16.334,4.805Z" transform="translate(-2287.599 -1288.044)" fill="#e65924"/>
        <path id="Tracé_1473" data-name="Tracé 1473" d="M2289.411,1319.163a11.576,11.576,0,0,0-19.089-7.659,28.574,28.574,0,0,0-5.976,7.132c-9.828,16.7,10.59,73.323,17.863,72.717s20.077,6.442,10.91-35.842C2290.64,1344.072,2290.427,1329.77,2289.411,1319.163Z" transform="translate(-2257.387 -1247.868)" fill="#fd9c28"/>
        <path id="Tracé_1474" data-name="Tracé 1474" d="M2304.707,1465.906s13.992,4.334,49.784,9.913c0,0,2.711-4.819,0-8.652,0,0-34.891-17.231-42.535-20.861C2303.412,1442.248,2301.19,1464.615,2304.707,1465.906Z" transform="translate(-2279.885 -1322.422)" fill="#fd9c28"/>
      </g>
      <g id="Groupe_1808" data-name="Groupe 1808" transform="translate(566.221 263.629)">
        <path id="Tracé_1475" data-name="Tracé 1475" d="M2771.995,1456s-41.372-11.75-89.23,32.553l1.993,37.753Z" transform="translate(-2617.746 -1344.604)" fill="#002822"/>
        <rect id="Rectangle_711" data-name="Rectangle 711" width="7.343" height="136.512" transform="translate(106.771 314.774) rotate(180)" fill="#002822"/>
        <path id="Tracé_1476" data-name="Tracé 1476" d="M2760.772,1892.838l-3.5-3.265a7.544,7.544,0,0,0-5.147-2.03h-38.942a6.789,6.789,0,0,0-4.519,1.724l-4.207,3.756a1.008,1.008,0,0,0,.672,1.76l54.894-.048A1.1,1.1,0,0,0,2760.772,1892.838Z" transform="translate(-2629.355 -1579.969)" fill="#002822"/>
        <path id="Tracé_1477" data-name="Tracé 1477" d="M2665.489,1778.222H2711a1.989,1.989,0,0,0,1.989-1.989h0a1.989,1.989,0,0,0-1.989-1.989h-45.515a1.989,1.989,0,0,0-1.989,1.989h0A1.989,1.989,0,0,0,2665.489,1778.222Z" transform="translate(-2607.273 -1518.377)" fill="#002822"/>
        <g id="Groupe_1806" data-name="Groupe 1806">
          <path id="Tracé_1478" data-name="Tracé 1478" d="M2718.547,1238.971s8.931,6.9-.3,16.4c0,0,8.3,2.574,10.9.535a7.014,7.014,0,0,1-1,1.457s8.425.465,11.957-2.1,2.125-45.74-21.367-41.368c0,0-19.8-1.879-18.4,21.105s-6.083,22.841-6.083,22.841a10.654,10.654,0,0,0,3.068,1.086s1.48-.533,1.787-1.339a5.229,5.229,0,0,1-.7,1.67s8.068.921,12.163-2.052S2719.608,1243.729,2718.547,1238.971Z" transform="translate(-2623.99 -1213.591)" fill="#45391d"/>
          <path id="Tracé_1479" data-name="Tracé 1479" d="M2627.966,1799.026c1.652,2.291,3.609,3.5,3.555,5.346-.1,3.3-6.7,6.617-6.5,11.788s-5.112,7.2-9.055,9.627-4.646,1.721-3.55-4.006c.134-.7.274-1.526.42-2.445,1.055-6.6,2.718-11.556,3.13-15.484.91-8.707-.736-35.011-.736-35.011l8.477,4.543,2.051,17.453A12.155,12.155,0,0,0,2627.966,1799.026Z" transform="translate(-2579.248 -1515.44)" fill="#d8a982"/>
          <path id="Tracé_1480" data-name="Tracé 1480" d="M2651.262,1518.84s-28.857,23.447-38.581,49.028c-2.143,5.64-5.5,56.92-10.492,75.829,0,0,10.8,9.746,18.473,10.4,0,0,21.531-56.033,14.8-70.477-3.092-6.632,50.266-24.748,56.214-44.389S2664.587,1506.576,2651.262,1518.84Z" transform="translate(-2573.943 -1376.938)" fill="#01644c"/>
          <path id="Tracé_1481" data-name="Tracé 1481" d="M2670.3,1722.345a2.868,2.868,0,0,1-1.64,2.645.021.021,0,0,1-.015.006c-1.906,1.05-5.251,1.154-8.891,1-.467-.019-.885-.032-1.259-.032-.1,0-.2,0-.292,0-.076,0-.152,0-.225,0-3.6.088-3.222,1.167-10.068,1.753-7.8.666-10.68-1.722-11.141-2.81-.386-.923,2.963-1.969,6.7-3.165.181-.057.362-.117.545-.174.5-.159,1-.324,1.5-.485,4.455-1.48,8.841-3.238,9.936-7.747,1.16-4.782-2.329-18.129-2.329-18.129l8.3-9.994s5.258,22.611,6.035,26.959c.419,2.321,1.472,4.167,2.087,6.156q.067.208.124.419A13.639,13.639,0,0,1,2670.3,1722.345Z" transform="translate(-2592.726 -1469.979)" fill="#f5c99d"/>
          <path id="Tracé_1482" data-name="Tracé 1482" d="M2670.3,1761.791a2.867,2.867,0,0,1-1.64,2.645.02.02,0,0,1-.015.007c-2.029.939-5.321,1.075-8.885.973-.466-.012-.885-.015-1.265-.009-.1,0-.2,0-.292,0-.076,0-.152,0-.225,0-3.6.088-3.222,1.167-10.068,1.753-7.8.666-10.68-1.722-11.141-2.809-.386-.923,2.963-1.969,6.7-3.165a23.126,23.126,0,0,0,11.974,1.021c5.206-.979,10.379-3.57,14.1-4.436q.067.208.124.418A13.642,13.642,0,0,1,2670.3,1761.791Z" transform="translate(-2592.726 -1509.425)" fill="#070707"/>
          <path id="Tracé_1483" data-name="Tracé 1483" d="M2559.035,1400.548s-3.925-7.891-6.468-7.05c-4.4,1.454-11.511-2.642-12.117-1.429s.681,6.2,2.5,7.772,14.145,5.435,14.145,5.435Z" transform="translate(-2540.297 -1310.492)" fill="#f5c99d"/>
          <path id="Tracé_1484" data-name="Tracé 1484" d="M2692.906,1530s-71.941-11.371-88.2,4.094c-8.648,8.225,30.418,90.038,30.418,90.038a56.593,56.593,0,0,0,8.218-2.338c3.938-1.406,6.773-5.3,6.773-5.3s-4.041-28.309-5.045-38.809c-1.417-14.8-11.429-21.71-6.829-21.239s38.808,20.247,59.635.252c12.724-12.216,6.22-29.922,6.22-29.922Z" transform="translate(-2574.633 -1383.41)" fill="#067254"/>
          <path id="Tracé_1485" data-name="Tracé 1485" d="M2728.393,1306.964c-.065.03,6.33,3.35,11.14,2.034,4.524-1.233,7.48-7.1,7.418-7.113-1.916-.381-2.468-3.013-2.428-14.328l-.866.171-14.565,2.883s.331,4.584.341,8.9C2729.443,1303.138,2729.223,1306.577,2728.393,1306.964Z" transform="translate(-2642.551 -1253.8)" fill="#f5c99d"/>
          <path id="Tracé_1486" data-name="Tracé 1486" d="M2729.926,1290.815s.331,4.584.341,8.9c8.15-.23,12.459-7.665,14.224-11.785Z" transform="translate(-2643.385 -1254.004)" fill="#d8a982"/>
          <path id="Tracé_1487" data-name="Tracé 1487" d="M2716.311,1264.449s19.283.318,19.3-11.694,2.511-20.06-9.8-20.771-14.708,3.87-15.688,7.878S2711.3,1264.057,2716.311,1264.449Z" transform="translate(-2632.491 -1223.55)" fill="#f5c99d"/>
          <path id="Tracé_1488" data-name="Tracé 1488" d="M2763.021,1421.774c-1.04,2.887-4.229,3.631-8.5,3.129-8.151-.952-20.719-4.5-29.742-7.506a75.177,75.177,0,0,0-21.6-3.836c-3.966,0,3.9-6.463,2.913-23.783-.4-7.146-4.862-17.754-7.158-28.821-2.667-12.849,14.227-40.4,14.227-40.4s1.46,7.976,17.622-1.617c.571-.339,6.932,9.082,13.061,20.693,6.753,12.812,13.223,28.289,11.322,36.264C2751.533,1391.1,2766.045,1413.384,2763.021,1421.774Z" transform="translate(-2626.379 -1270.857)" fill="#97c157"/>
          <path id="Tracé_1489" data-name="Tracé 1489" d="M2644.457,1322.5l-9.965,40.874s-1.24,2.208-3.183,5.348c-4.562,7.377-13.006,19.908-18.412,21.181-2.666.629-8.338-1.591-14.615-4.762a296.653,296.653,0,0,1-25.9-15.392c-.907-5.441,3.827-9.876,3.827-9.876s28.418,10.681,31.242,10.884c6.152.438,12.413-29.256,18.163-39.151C2629.776,1324.447,2644.457,1322.5,2644.457,1322.5Z" transform="translate(-2557.679 -1272.795)" fill="#97c157"/>
          <path id="Tracé_1490" data-name="Tracé 1490" d="M2724.721,1286.092s-.359,1.526-4.156,1.291c0,0-3.187-.2-3.09-1.874A10.254,10.254,0,0,1,2724.721,1286.092Z" transform="translate(-2636.615 -1252.474)" fill="#fff"/>
          <path id="Tracé_1491" data-name="Tracé 1491" d="M2794.149,1464.148c-1.04,2.887-4.229,3.631-8.5,3.129-5.642-2.458-30.011-11.9-29.739-18.3.405-9.472,4.686-9.774,1.664-21.465-2.428-9.387,20.09-26.841,23.681-30.635,6.754,12.812,6.94,13.418,5.038,21.393C2782.661,1433.477,2797.173,1455.758,2794.149,1464.148Z" transform="translate(-2657.507 -1313.232)" fill="#679b40"/>
          <path id="Tracé_1492" data-name="Tracé 1492" d="M2631.406,1840.328c-.1,3.3-6.7,6.617-6.5,11.788s-5.567,8.953-9.51,11.385-4.191-.036-3.1-5.764c.134-.7.274-1.525.42-2.445,1.328-.535,6.233-2.824,8.187-7.861a69.6,69.6,0,0,1,6.946-12.45C2629.5,1837.273,2631.46,1838.48,2631.406,1840.328Z" transform="translate(-2579.134 -1551.396)" fill="#070707"/>
          <g id="Groupe_1805" data-name="Groupe 1805" transform="translate(81.141 95.161)">
            <path id="Tracé_1493" data-name="Tracé 1493" d="M2724.468,1436.875h0a6.394,6.394,0,0,1-6.375-6.375v-8.394h12.75v8.394A6.394,6.394,0,0,1,2724.468,1436.875Z" transform="translate(-2718.093 -1422.106)" fill="#eaf7f9"/>
            <rect id="Rectangle_712" data-name="Rectangle 712" width="0.799" height="12.175" transform="translate(5.975 14.017)" fill="#eaf7f9"/>
            <path id="Tracé_1494" data-name="Tracé 1494" d="M2731.2,1480.062c-.743-.94-2.489-1.6-4.525-1.6s-3.782.66-4.525,1.6Z" transform="translate(-2720.296 -1452.743)" fill="#eaf7f9"/>
            <path id="Tracé_1495" data-name="Tracé 1495" d="M2730.968,1441.127a5.726,5.726,0,0,1-11.426,0Z" transform="translate(-2718.881 -1432.446)" fill="#e65924"/>
          </g>
          <path id="Tracé_1496" data-name="Tracé 1496" d="M2734.98,1460.491s-4.082-3.174-7.936-2.419-5.744,3.4-5.593,4.611,2.192,4.61,5.139,4.912,11.337-1.813,11.337-1.813Z" transform="translate(-2638.773 -1346.434)" fill="#f5c99d"/>
          <path id="Tracé_1497" data-name="Tracé 1497" d="M2757.468,1318.952s15.716.969,21.158,8.557c7.658,10.682,20.96,54.292,17.333,64.269,0,0-13.081,2.719-24.709,2.011-5.993-.365-23.108-2.213-23.108-2.213s-1.159-5.416.453-8.036,27.814-6.853,29.023-8.062-15.116-23.581-15.116-27.209S2757.468,1318.952,2757.468,1318.952Z" transform="translate(-2653.068 -1270.868)" fill="#97c157"/>
          <path id="Tracé_1498" data-name="Tracé 1498" d="M2566.466,1394.6s-2.431-4.772-5.173-6.459-4.429-2.215-3.48-.949,3.48,4.851,3.48,4.851l5.173,3.551Z" transform="translate(-2549.675 -1307.584)" fill="#f5c99d"/>
          <path id="Tracé_1499" data-name="Tracé 1499" d="M2721.314,1222.177s7.1,17.891,16.488,20.5,12.253-1.211,12.253-1.211a26.714,26.714,0,0,1-8.432-15.948S2726.1,1214.459,2721.314,1222.177Z" transform="translate(-2638.703 -1216.771)" fill="#45391d"/>
          <path id="Tracé_1500" data-name="Tracé 1500" d="M2714.3,1224.13s-5.548,1.537-6.7,4.975-1.644,10.973-1.023,11.476c0,0-5.816-12.248-.641-18.28,1.975-2.3,9.2-5.81,11.271-6.4C2719.483,1215.243,2714.3,1224.13,2714.3,1224.13Z" transform="translate(-2629.173 -1214.826)" fill="#45391d"/>
          <path id="Tracé_1501" data-name="Tracé 1501" d="M2722.743,1225.755s3.933,16.774,15.395,22.342c0,0-11.366-10.478-12.136-21.515S2722.743,1225.755,2722.743,1225.755Z" transform="translate(-2639.479 -1217.864)" fill="#45391d"/>
        </g>
        <g id="Groupe_1807" data-name="Groupe 1807" transform="translate(67.009 111.395)">
          <path id="Tracé_1502" data-name="Tracé 1502" d="M2687.127,1527.985a57.2,57.2,0,0,0,87.238-70.306c-20.053,5.437-44.208,16.029-64.071,36.619A125.66,125.66,0,0,0,2687.127,1527.985Z" transform="translate(-2687.127 -1457.679)" fill="#002822"/>
          <path id="Tracé_1503" data-name="Tracé 1503" d="M2687.127,1571.6a57.2,57.2,0,0,0,68.336,3.324c-54.462.312-45.166-37.011-45.166-37.011h0A125.663,125.663,0,0,0,2687.127,1571.6Z" transform="translate(-2687.127 -1501.298)" fill="#002822"/>
        </g>
      </g>
      <g id="Groupe_1813" data-name="Groupe 1813" transform="translate(132.684 301.819)">
        <path id="Tracé_1504" data-name="Tracé 1504" d="M2414.209,1722.884c-3.478,20.24-26.229,33.13-49.563,33.13h-46.218l3.583-116.937s44.129-13.887,55.2-1.663c9.7,10.709,36.017,53.1,37.4,78.192A32.306,32.306,0,0,1,2414.209,1722.884Z" transform="translate(-1986.146 -1479.446)" fill="#4ac195"/>
        <path id="Tracé_1505" data-name="Tracé 1505" d="M2259.471,1652.6s62.347-28.892,74.156-10.019c6.271,10.021,23.526,50,24.8,75.09,1.238,24.38-22.026,40.409-45.957,40.409h-42.5Z" transform="translate(-1954.094 -1481.513)" fill="#01483f"/>
        <path id="Tracé_1506" data-name="Tracé 1506" d="M1980.146,1579.376c-1.171,2.456-12.422,4.734-29.117,6.75-2.942.356-6.05.7-9.306,1.043-56.821,5.911-212.447,9.212-222.04,7.469-13.255-2.408-39.632-120.168-39.632-120.168s77.663-1.19,139.341-1.769c21.1-.2,94.494-.689,108.1-.689C1948.574,1472.01,1982.037,1575.4,1980.146,1579.376Z" transform="translate(-1639.106 -1392.265)" fill="#067254"/>
        <path id="Tracé_1507" data-name="Tracé 1507" d="M2442.259,1830.039c-3.479,20.24-26.229,33.13-49.563,33.13h-22.671C2385.143,1853.865,2398.812,1825.195,2442.259,1830.039Z" transform="translate(-2014.195 -1586.601)" fill="#067254"/>
        <path id="Tracé_1508" data-name="Tracé 1508" d="M2129.442,1768.216q-1.034.731-2.123,1.437c-9.005,5.854-20.751,10.509-34.186,13.4a151.936,151.936,0,0,1-32.9,3.262l-20.209.005h-.274l-95.665.022-54.835.014h-.811l0-.021-1.9-8.776-17.362-88.506s240.291-4.771,259.83,5.064c9.073,4.565,14.221,23.481,17.076,44.324C2147.6,1749.538,2141.157,1759.955,2129.442,1768.216Z" transform="translate(-1741.918 -1509.625)" fill="#01644c"/>
        <path id="Tracé_1509" data-name="Tracé 1509" d="M2152.718,1857.8q-1.046.8-2.146,1.573c-9.1,6.41-20.973,11.508-34.551,14.67a142.14,142.14,0,0,1-33.248,3.572l-20.426.006h-.278l-96.685.025-55.421.016-.824-.023-1.923-9.61c33.969-6.271,80.973-12.641,130.007-12.147C2084.052,1856.353,2123.26,1856.293,2152.718,1857.8Z" transform="translate(-1762.599 -1600.932)" fill="#01483f"/>
        <g id="Groupe_1811" data-name="Groupe 1811" transform="translate(117.751)">
          <g id="Groupe_1810" data-name="Groupe 1810">
            <path id="Tracé_1510" data-name="Tracé 1510" d="M2035.74,1530.176s26.268,15.673,36.02,24.714c0,0-5.338,2.536-7.27,2.667-10.561.718-34.241-7.509-38.638-17.319Z" transform="translate(-1944.844 -1423.885)" fill="#97c157"/>
            <path id="Tracé_1511" data-name="Tracé 1511" d="M2026.641,1813.417a3.159,3.159,0,0,0-.563,3.379.029.029,0,0,0,.009.017c.815,2.252,3.508,4.767,6.635,7.279.4.323.755.616,1.065.888.082.071.163.142.239.214.064.055.124.113.184.166,2.917,2.689,1.819,3.3,7.059,8.76,5.975,6.217,10.088,6.329,11.258,5.762.99-.483-1.021-3.779-3.25-7.485-.108-.178-.214-.359-.325-.54-.3-.492-.592-.993-.886-1.488-2.612-4.46-1.941-6.553-1.322-13.19.5-5.394,8.391-30.132,8.391-30.132l-11.45-1.972s-3.448,19.7-7.247,22.733c-2.031,1.618-4.305,1.638-6.258,2.837q-.207.124-.406.256A15.042,15.042,0,0,0,2026.641,1813.417Z" transform="translate(-1944.83 -1562.454)" fill="#f5c99d"/>
            <path id="Tracé_1512" data-name="Tracé 1512" d="M2026.641,1843.876a3.158,3.158,0,0,0-.563,3.378.028.028,0,0,0,.009.017c1,2.25,3.623,4.752,6.646,7.256.395.328.744.629,1.054.911.082.071.163.142.239.214.064.055.124.113.184.166,2.917,2.689,1.819,3.3,7.059,8.76,5.975,6.216,10.088,6.328,11.258,5.762.99-.483-1.021-3.779-3.25-7.485a25.453,25.453,0,0,1-10.65-7.848c-3.6-4.59-6-10.489-8.447-13.905-.138.083-.274.168-.406.256A15.034,15.034,0,0,0,2026.641,1843.876Z" transform="translate(-1944.83 -1592.912)" fill="#e65924"/>
            <path id="Tracé_1513" data-name="Tracé 1513" d="M2219,1802.116c.707,3.535,5.745,2.945,11.373,1.57s4.291.26,12.3-.628,10.437-3.873,10.681-5.064c.219-1.057-3.739-1.43-7.985-1.919-.533-.06-1.069-.126-1.606-.192-4.793-.6-8.3-3.694-12.657-6.234-4.124-2.407-10.279-12.209-10.279-12.209l-10.986.87s5.765,8.755,7.994,12.563c1.312,2.239,1.243,5.2,1.079,7.487A14.124,14.124,0,0,0,2219,1802.116Z" transform="translate(-2044.866 -1558.304)" fill="#f5c99d"/>
            <path id="Tracé_1514" data-name="Tracé 1514" d="M2241.081,1825.884c5.629-1.375,4.291.26,12.3-.628s10.437-3.873,10.681-5.064c.219-1.057-3.739-1.43-7.985-1.919l-.039.081a22.585,22.585,0,0,1-11.472,3.567c-5.435.131-11.191-1.425-14.944-1.365a14.1,14.1,0,0,0,.084,3.757C2230.415,1827.849,2235.453,1827.26,2241.081,1825.884Z" transform="translate(-2055.574 -1580.502)" fill="#e65924"/>
            <path id="Tracé_1515" data-name="Tracé 1515" d="M2092.766,1656.615l-10.27,27.634-13.407,36.082a21.715,21.715,0,0,1-7.123-.651,30.882,30.882,0,0,1-6.889-3.353s3.723-38.742,10.668-60.981c1.779-5.709,3.775-10.326,5.975-12.926C2082.488,1629.7,2092.766,1656.615,2092.766,1656.615Z" transform="translate(-1960.732 -1483.047)" fill="#45391d"/>
            <path id="Tracé_1516" data-name="Tracé 1516" d="M1996.457,1574.855c-6.728-2.171-25.917.616-45.193,4.389l-4.036-6.657-41.636-3.252s-13.739,30.468-6.217,49.881a7.04,7.04,0,0,0,7.047,4.743h.608s24.781-.014,32.827-.014c20.706,0,43.82-14.233,46.811-14.831,4.894-.979,6.852,8.81,11.747,19.087s46.007,45.518,46.007,45.518,6.318.063,8.928-.916a8.8,8.8,0,0,0,3.834-2.42S2011.63,1579.749,1996.457,1574.855Z" transform="translate(-1874.864 -1445.173)" fill="#847d3d"/>
            <path id="Tracé_1517" data-name="Tracé 1517" d="M1913.4,1297.936c-5.835-1.5-13.821,0-15.144.125-15.844,1.558-21.166,19.231-18.767,32.944,2.213,12.65-4.208,16.151-11.644,26.146-5.735,7.7-7.822,14.945-7.553,21.187a23.262,23.262,0,0,0,1.388,7.015,22.088,22.088,0,0,0,12.767,13.088,10.817,10.817,0,0,0,4.156.6,15.785,15.785,0,0,0,2.152-.23c.134-.022.264-.043.4-.07a25.471,25.471,0,0,0,4.768-1.474,33.746,33.746,0,0,0,5.388-2.808c.178,0,12.407-7.995,24.549-16.745,1.731-1.245,3.458-2.5,5.15-3.757,1.926-1.431,3.8-2.854,5.583-4.234,3.075-2.394,5.856-4.672,8.073-6.677C1955.573,1354.87,1928.265,1301.762,1913.4,1297.936Z" transform="translate(-1854.827 -1297.272)" fill="#070707"/>
            <path id="Tracé_1518" data-name="Tracé 1518" d="M1956.3,1401.6c.073.025-6.766,5.115-12.057,4.124-4.976-.928-9.892-7.2-9.826-7.217,2.028-.578,3.608-3.24,2.567-15.408l.947.107,15.922,1.818s.048,4.961.418,9.606C1954.578,1398.532,1955.371,1401.259,1956.3,1401.6Z" transform="translate(-1895.136 -1343.931)" fill="#f5c99d"/>
            <path id="Tracé_1519" data-name="Tracé 1519" d="M1958.037,1385.153s.048,4.96.418,9.606c-8.787.472-14.077-7.146-16.34-11.424Z" transform="translate(-1899.322 -1344.058)" fill="#d8a982"/>
            <path id="Tracé_1520" data-name="Tracé 1520" d="M1956.831,1355.335s-20.716,2.043-21.789-10.877-4.471-21.358,8.71-23.209,16.164,2.866,17.571,7.091S1962.191,1354.471,1956.831,1355.335Z" transform="translate(-1894.827 -1310.082)" fill="#f5c99d"/>
            <path id="Tracé_1521" data-name="Tracé 1521" d="M1947.289,1314.837s-2.609,15.784-14.407,19.529c-8.607,2.732-12.5.93-12.5.93a35.075,35.075,0,0,0,5.615-13.132,6.316,6.316,0,0,1,4.213-4.82C1936.322,1315.332,1943.733,1309.831,1947.289,1314.837Z" transform="translate(-1887.505 -1305.708)" fill="#070707"/>
            <path id="Tracé_1522" data-name="Tracé 1522" d="M1970.793,1320.341s3.9.869,7.363,5.907c1.89,2.753,4.081,9.692,3.706,12.765,0,0,3.626-14.608-1.66-20.043C1974.6,1313.208,1970.793,1320.341,1970.793,1320.341Z" transform="translate(-1914.912 -1307.846)" fill="#070707"/>
            <path id="Tracé_1523" data-name="Tracé 1523" d="M1951.264,1454.34c-.624,41.761-.171,33.035-4.74,37-1.1.954-4.195,1.523-8.268,1.792-12.806.849-35.317-1.26-36.172-3.627-2.954-8.189-.869-10.733-3.333-23.269-.256-1.333-.575-2.776-.948-4.348-2.054-8.61-4.054-11.54,3.235-25.373,6.61-12.531,13.478-22.7,14.1-22.333,17.441,10.353,18.848,1.651,18.848,1.651S1951.57,1433.97,1951.264,1454.34Z" transform="translate(-1874.199 -1360.822)" fill="#97c157"/>
            <path id="Tracé_1524" data-name="Tracé 1524" d="M1941.652,1534.431c-12.805.849-35.316-1.26-36.172-3.627-2.954-8.189-.868-10.732-3.333-23.269l6.177-17.392s-1.021,19.367,4.691,24.461,23.386,9.833,26.162,14.09A15.578,15.578,0,0,1,1941.652,1534.431Z" transform="translate(-1877.594 -1402.122)" fill="#679b40"/>
            <g id="Groupe_1809" data-name="Groupe 1809" transform="translate(53.306 108.312)">
              <path id="Tracé_1525" data-name="Tracé 1525" d="M1972.063,1550.616h0a6.932,6.932,0,0,1-6.911-6.911v-9.1h13.822v9.1A6.931,6.931,0,0,1,1972.063,1550.616Z" transform="translate(-1965.151 -1534.605)" fill="#eaf7f9"/>
              <rect id="Rectangle_713" data-name="Rectangle 713" width="0.866" height="13.2" transform="translate(6.478 15.195)" fill="#eaf7f9"/>
              <path id="Tracé_1526" data-name="Tracé 1526" d="M1979.357,1597.436c-.806-1.019-2.7-1.734-4.906-1.734s-4.1.716-4.906,1.734Z" transform="translate(-1967.54 -1567.819)" fill="#eaf7f9"/>
              <path id="Tracé_1527" data-name="Tracé 1527" d="M1979.11,1555.225a6.208,6.208,0,0,1-12.388,0Z" transform="translate(-1966.005 -1545.815)" fill="#e65924"/>
            </g>
            <path id="Tracé_1528" data-name="Tracé 1528" d="M1957.148,1561.409a10.144,10.144,0,0,1,2.9-2.667c1.33-.572,3.922-2.858,4.3-2.439s-1.469,4.335-1.469,4.335l-6.321,2.259Z" transform="translate(-1907.175 -1438.06)" fill="#f5c99d"/>
            <path id="Tracé_1529" data-name="Tracé 1529" d="M2082.5,1703.715,2069.09,1739.8a21.709,21.709,0,0,1-7.123-.651,30.875,30.875,0,0,1-6.889-3.353s3.723-38.742,10.668-60.981Z" transform="translate(-1960.732 -1502.513)" fill="#847d3d"/>
            <path id="Tracé_1530" data-name="Tracé 1530" d="M1979.346,1417.8s17.946,3.043,20.054,10.77,16.667,50.941,16.667,50.941-11.281,3.849-15.5-.366-14.665-39.1-14.665-39.1Z" transform="translate(-1919.562 -1362.796)" fill="#97c157"/>
            <path id="Tracé_1531" data-name="Tracé 1531" d="M1958.346,1566.425s2.013-4.285,4.885-2.2c3.111,2.262,10.764-1.573,11.91-.824,1.321.86-.821,3.733-1.958,5.333s-4.706,4.607-8.033,4.267c-2.431-.249-6.178-.244-6.178-.244Z" transform="translate(-1908.146 -1441.895)" fill="#f5c99d"/>
            <path id="Tracé_1532" data-name="Tracé 1532" d="M1889.272,1414.171s-16.963,1.045-22.835,9.235c-8.266,11.529-24.665,60.665-15.266,67.219,10.583,7.38,48.169,1.93,48.169,1.93s1.25-5.846-.49-8.673-30.02-7.4-31.325-8.7,16.315-25.452,16.315-29.368S1889.272,1414.171,1889.272,1414.171Z" transform="translate(-1848.347 -1360.822)" fill="#97c157"/>
            <path id="Tracé_1533" data-name="Tracé 1533" d="M1973.733,1379.23a3.562,3.562,0,0,0,3.162,2.124c2.294,0,2.914-.343,3.348-.829a7.153,7.153,0,0,0,.865-1.421A19.487,19.487,0,0,0,1973.733,1379.23Z" transform="translate(-1916.51 -1341.595)" fill="#fff"/>
            <path id="Tracé_1534" data-name="Tracé 1534" d="M2124.281,1584.329l-1.816.82c2.068,4.143,3.828,7.343,5.417,8.73,1.864,1.626,3.939,5.63,5.381,5.381,1.46-.251,1.429-3.113.736-7.153a6.294,6.294,0,0,0-4.452-5.42C2128.924,1586.43,2125.395,1584.75,2124.281,1584.329Z" transform="translate(-1997.365 -1453.324)" fill="#f5c99d"/>
          </g>
        </g>
        <g id="Groupe_1812" data-name="Groupe 1812" transform="translate(0 79.747)">
          <path id="Tracé_1535" data-name="Tracé 1535" d="M1910.621,1723.654c-3.748,19.63-24.314,32.071-45.4,32.071h-42.5l3.326-117.974s40.552-12.85,50.737-.626c8.924,10.709,33.122,53.1,34.4,78.191A34.774,34.774,0,0,1,1910.621,1723.654Z" transform="translate(-1716.667 -1558.905)" fill="#4ac195"/>
          <path id="Tracé_1536" data-name="Tracé 1536" d="M1920.735,1832.338c-3.748,19.63-24.314,32.071-45.4,32.071h-34.012C1857.249,1854.613,1878.684,1827.544,1920.735,1832.338Z" transform="translate(-1726.781 -1667.589)" fill="#067254"/>
          <path id="Tracé_1537" data-name="Tracé 1537" d="M1759.967,1637.583a35.777,35.777,0,0,1-11.922,19.453l0,0a46.79,46.79,0,0,1-12.071,7.481,53.785,53.785,0,0,1-17.572,4.228c-.317.019-.634.039-.952.056-.252.011-.507.021-.759.028q-.633.026-1.266.034c-.223,0-.447,0-.674,0h-42.5l0-.019-2.454.029c-4.374.048-8.946.094-13.185.128-.712.007-1.411.012-2.1.016-.257,0-.515,0-.764,0-4.189.026-7.895.038-10.536.021a76.929,76.929,0,0,1-10.511-.735,50.678,50.678,0,0,1-11.715-3.043c-.637-.256-1.263-.524-1.878-.808s-1.244-.59-1.848-.909a37.091,37.091,0,0,1-4.609-2.855,38.973,38.973,0,0,1-9.8-10.453,54.986,54.986,0,0,1-5.1-10.079,89.5,89.5,0,0,1-4.382-15.724c-.03-.15-.06-.3-.088-.452q-.764-4.06-1.326-8.543-.255-2.044-.469-4.176-.76-7.532-1.014-16.213c-.015-.5-.027-1.013-.04-1.523,0-.114-.005-.227-.008-.34q-.157-6.9-.017-14.547.06-3.352.177-6.85.052-1.591.117-3.211.326-8.137.937-17.052.273-4.008.6-8.175,1.355-17.181,3.645-37.2c1.72-15.171,3.705-25.776,6.592-28.192,4.257-3.564,13.138-5,19.317-5.572h0c3.833-.358,6.621-.384,6.621-.384.137,0,.275,0,.412.005.1,0,.194,0,.292.01.235.01.47.024.7.044.13.009.262.021.392.036.087.007.173.017.257.028.13.015.26.031.387.051.23.031.457.07.684.11.155.029.312.061.467.094a.3.3,0,0,1,.04.007c.112.024.225.048.337.077.214.048.427.1.636.162.145.041.287.082.43.125l.3.094a17.538,17.538,0,0,1,3.381,1.516,17.909,17.909,0,0,1,7.965,9.87c4.933,14.887,13.74,41.5,22.9,69.341.045.14.093.279.137.42q.791,2.4,1.583,4.809c.052.162.1.326.16.488l.082.245c.517-.21,1.051-.429,1.605-.648a.346.346,0,0,1,.057-.025c2.2-.884,4.684-1.854,7.368-2.84h0c1.39-.512,2.832-1.032,4.319-1.548,4.195-1.458,8.721-2.9,13.31-4.144,2.035-.555,4.088-1.07,6.125-1.526,2.617-.588,5.213-1.088,7.745-1.456l.22-.034c.3-.043.6-.081.894-.123,1.785-.236,3.531-.41,5.221-.5h0c8.644-.48,15.8,1.087,19.077,6.336a97.417,97.417,0,0,1,4.729,8.987,280.23,280.23,0,0,1,12.566,31.743c3.913,11.995,6.994,24.487,7.506,34.579A34.808,34.808,0,0,1,1759.967,1637.583Z" transform="translate(-1590.334 -1472.013)" fill="#01483f"/>
          <path id="Tracé_1538" data-name="Tracé 1538" d="M1687.69,1564.262s-21.815-80.689-23.39-87.47a5.455,5.455,0,0,0-5.041-4.4c3.834-.357,6.624-.383,6.624-.383a17.639,17.639,0,0,1,16.678,12.195c5.283,15.9,15.012,45.22,24.866,75.083C1706.929,1559.279,1687.69,1564.262,1687.69,1564.262Z" transform="translate(-1627.803 -1472.013)" fill="#4ac195"/>
        </g>
      </g>
      <g id="Groupe_1820" data-name="Groupe 1820" transform="translate(255.769 202.699)">
        <path id="Rectangle_714" data-name="Rectangle 714" d="M10.276,0H52.052A10.277,10.277,0,0,1,62.33,10.277V50.193A10.276,10.276,0,0,1,52.053,60.469H10.277A10.277,10.277,0,0,1,0,50.192V10.276A10.276,10.276,0,0,1,10.276,0Z" fill="#002822"/>
        <path id="Rectangle_715" data-name="Rectangle 715" d="M9.387,0H47.542a9.387,9.387,0,0,1,9.387,9.387V45.844a9.387,9.387,0,0,1-9.387,9.387H9.386A9.386,9.386,0,0,1,0,45.845V9.387A9.387,9.387,0,0,1,9.387,0Z" transform="translate(2.7 2.619)" fill="url(#linear-gradient)"/>
        <g id="Groupe_1816" data-name="Groupe 1816" transform="translate(7.359 6.847)">
          <g id="Groupe_1814" data-name="Groupe 1814" transform="translate(22.515)">
            <path id="Tracé_1539" data-name="Tracé 1539" d="M1925.5,1096.376a1.291,1.291,0,1,1,1.291,1.291A1.291,1.291,0,0,1,1925.5,1096.376Z" transform="translate(-1925.497 -1095.085)" fill="#002822"/>
            <path id="Tracé_1540" data-name="Tracé 1540" d="M1948.131,1101.121a1.291,1.291,0,1,1,.5,1.756A1.292,1.292,0,0,1,1948.131,1101.121Z" transform="translate(-1937.713 -1098.006)" fill="#002822"/>
            <path id="Tracé_1541" data-name="Tracé 1541" d="M1967.178,1117.2a1.291,1.291,0,1,1-.385,1.785A1.292,1.292,0,0,1,1967.178,1117.2Z" transform="translate(-1947.835 -1106.998)" fill="#002822"/>
            <path id="Tracé_1542" data-name="Tracé 1542" d="M1976.032,1141.5a1.291,1.291,0,1,1-1.291,1.292A1.291,1.291,0,0,1,1976.032,1141.5Z" transform="translate(-1952.268 -1120.317)" fill="#002822"/>
            <circle id="Ellipse_283" data-name="Ellipse 283" cx="1.291" cy="1.291" r="1.291" transform="translate(19.303 33.541)" fill="#002822"/>
            <circle id="Ellipse_284" data-name="Ellipse 284" cx="1.291" cy="1.291" r="1.291" transform="translate(11.196 41.67)" fill="#002822"/>
            <path id="Tracé_1543" data-name="Tracé 1543" d="M1925.5,1194.864a1.291,1.291,0,1,1,1.291,1.291A1.292,1.292,0,0,1,1925.5,1194.864Z" transform="translate(-1925.497 -1148.625)" fill="#002822"/>
          </g>
          <g id="Groupe_1815" data-name="Groupe 1815" transform="translate(0 2.452)">
            <path id="Tracé_1544" data-name="Tracé 1544" d="M1905.355,1101.121a1.291,1.291,0,1,0-.5,1.756A1.292,1.292,0,0,0,1905.355,1101.121Z" transform="translate(-1890.716 -1100.457)" fill="#002822"/>
            <path id="Tracé_1545" data-name="Tracé 1545" d="M1886.308,1117.2a1.291,1.291,0,1,0,.384,1.785A1.292,1.292,0,0,0,1886.308,1117.2Z" transform="translate(-1880.595 -1109.449)" fill="#002822"/>
            <path id="Tracé_1546" data-name="Tracé 1546" d="M1877.454,1141.5a1.291,1.291,0,1,0,1.291,1.292A1.291,1.291,0,0,0,1877.454,1141.5Z" transform="translate(-1876.163 -1122.769)" fill="#002822"/>
            <path id="Tracé_1547" data-name="Tracé 1547" d="M1883.488,1168.959a1.291,1.291,0,1,0,1.826,0A1.291,1.291,0,0,0,1883.488,1168.959Z" transform="translate(-1879.939 -1137.491)" fill="#002822"/>
            <circle id="Ellipse_285" data-name="Ellipse 285" cx="1.291" cy="1.291" r="1.291" transform="translate(11.278 39.218)" fill="#002822"/>
          </g>
        </g>
        <g id="Groupe_1819" data-name="Groupe 1819" transform="translate(30.817 13.191)">
          <path id="Tracé_1548" data-name="Tracé 1548" d="M1927.563,1142.791a1.291,1.291,0,1,1,1.291,1.291A1.291,1.291,0,0,1,1927.563,1142.791Z" transform="translate(-1927.563 -1126.661)" fill="#002822"/>
          <g id="Groupe_1817" data-name="Groupe 1817" transform="translate(1.115)">
            <rect id="Rectangle_716" data-name="Rectangle 716" width="0.353" height="16.129" fill="#002822"/>
          </g>
          <g id="Groupe_1818" data-name="Groupe 1818" transform="translate(0.803 8.978)">
            <rect id="Rectangle_717" data-name="Rectangle 717" width="10.871" height="1.057" transform="matrix(0.786, -0.618, 0.618, 0.786, 0, 6.714)" fill="#002822"/>
          </g>
        </g>
      </g>
      <g id="Groupe_1828" data-name="Groupe 1828" transform="translate(0 426.424)">
        <g id="Groupe_1827" data-name="Groupe 1827">
          <g id="Groupe_1822" data-name="Groupe 1822" transform="translate(80.981 60.481)">
            <path id="Tracé_1549" data-name="Tracé 1549" d="M1510.446,1728.468s-10.6-12.364-.654-20.218c0,0,7.264-4.4,13.187-4.04,0,0-8.393,14.073-5.678,15.473s8.221-16.357,8.221-16.357,16.531-1.6,21.849.954c0,0-14.132,11.564-11.155,12.253s18.24-10.663,18.24-10.663,15.385,2.618,14.564,12-6.121,12.284-8.451,12.034-15.959-5.452-16.257-3.543,7.907,8.148,13.653,8.44c0,0-10.847,11.962-18.056,8.51s-7.824-8.924-12.318-10.977-8.33-2.048-6.474.046,9.988,4.128,12.558,8.674,4.875,7.611-2.583,6.489-19.582-6.58-20.115-12.829Z" transform="translate(-1492.532 -1702.83)" fill="url(#linear-gradient-2)"/>
            <g id="Groupe_1821" data-name="Groupe 1821" transform="translate(0 15.225)">
              <path id="Tracé_1550" data-name="Tracé 1550" d="M1556.232,1736.264s-41.787-1.611-51.015,10.34a30.224,30.224,0,0,1-8.321,11.679l-.979,2.667s7.241-7.635,9.832-8.1C1505.749,1752.853,1501.7,1738.047,1556.232,1736.264Z" transform="translate(-1487.304 -1736.191)" fill="url(#linear-gradient-2)"/>
              <path id="Tracé_1551" data-name="Tracé 1551" d="M1486.635,1783.344s-8.969,6.633-9.592,18.485l1.628.145s2.865-12.255,8.042-17.047S1486.635,1783.344,1486.635,1783.344Z" transform="translate(-1477.043 -1761.253)" fill="url(#linear-gradient-2)"/>
            </g>
          </g>
          <g id="Groupe_1824" data-name="Groupe 1824" transform="translate(0 26.912)">
            <path id="Tracé_1552" data-name="Tracé 1552" d="M1361.438,1672.93s16.859-9.441,8.991-22.254c0,0-6.294-7.868-13.037-9.891,0,0,3.6,19.107,0,19.557s-2.472-21.579-2.472-21.579-17.759-8.542-24.727-7.868c0,0,11.015,18.657,7.418,18.208s-15.959-19.333-15.959-19.333-18.208-3.371-21.13,7.418,1.8,16.184,4.5,16.859,20.005.449,19.557,2.7-12.139,5.844-18.657,3.821c0,0,7.193,17.758,16.634,16.859s12.364-6.743,18.208-7.193,10.116,1.124,7.193,2.7-12.813.516-17.533,4.529-8.542,6.486.224,8.284,24.5.675,27.649-6.069Z" transform="translate(-1299.599 -1629.273)" fill="url(#linear-gradient-5)"/>
            <g id="Groupe_1823" data-name="Groupe 1823" transform="translate(9.239 11.289)">
              <path id="Tracé_1553" data-name="Tracé 1553" d="M1319.844,1654.008s47.205,15.286,52.6,32.369a35.865,35.865,0,0,0,4.5,16.41v3.371s-4.945-11.464-7.643-13.037C1369.3,1693.121,1379.862,1678.285,1319.844,1654.008Z" transform="translate(-1319.844 -1654.008)" fill="url(#linear-gradient-2)"/>
              <path id="Tracé_1554" data-name="Tracé 1554" d="M1442.265,1758.392s7.28,11.054,3.13,24.511l-1.873-.5s1.818-14.821-1.991-22.276S1442.265,1758.392,1442.265,1758.392Z" transform="translate(-1385.169 -1709.613)" fill="url(#linear-gradient-2)"/>
            </g>
          </g>
          <g id="Groupe_1826" data-name="Groupe 1826" transform="translate(74.051)">
            <path id="Tracé_1555" data-name="Tracé 1555" d="M1476.468,1627.853s-22.223-12.445-11.853-29.335c0,0,8.3-10.371,17.186-13.037,0,0-4.741,25.186,0,25.779s3.26-28.446,3.26-28.446,23.408-11.26,32.594-10.371c0,0-14.519,24.594-9.778,24s21.038-25.482,21.038-25.482,24-4.445,27.853,9.778-2.371,21.334-5.926,22.223-26.372.593-25.779,3.556,16,7.7,24.594,5.037c0,0-9.482,23.408-21.927,22.223s-16.3-8.889-24-9.482-13.334,1.482-9.482,3.556,16.89.68,23.112,5.97,11.26,8.55-.3,10.92-32.3.889-36.446-8Z" transform="translate(-1461.858 -1570.304)" fill="url(#linear-gradient-5)"/>
            <g id="Groupe_1825" data-name="Groupe 1825" transform="translate(2.873 14.88)">
              <path id="Tracé_1556" data-name="Tracé 1556" d="M1556.148,1602.909s-62.225,20.149-69.336,42.669c0,0,.3,10.074-5.926,21.631v4.445s6.519-15.111,10.075-17.186C1490.961,1654.467,1477.034,1634.91,1556.148,1602.909Z" transform="translate(-1475.075 -1602.909)" fill="url(#linear-gradient-2)"/>
              <path id="Tracé_1557" data-name="Tracé 1557" d="M1473.964,1740.507s-9.6,14.572-4.126,32.311l2.469-.663s-2.4-19.538,2.625-29.365S1473.964,1740.507,1473.964,1740.507Z" transform="translate(-1468.153 -1676.207)" fill="url(#linear-gradient-2)"/>
            </g>
          </g>
          <path id="Tracé_1558" data-name="Tracé 1558" d="M1440.376,1847.033a43.532,43.532,0,0,0,43.532-43.531h-87.064A43.531,43.531,0,0,0,1440.376,1847.033Z" transform="translate(-1352.464 -1697.077)" fill="url(#linear-gradient-11)"/>
          <path id="Tracé_1559" data-name="Tracé 1559" d="M1457.407,1846.7a43.557,43.557,0,0,1-48.938-43.2h10.815A43.538,43.538,0,0,0,1457.407,1846.7Z" transform="translate(-1358.784 -1697.076)" fill="#eaf7f9"/>
          <rect id="Rectangle_718" data-name="Rectangle 718" width="89.485" height="1.335" transform="translate(42.949 106.425)" fill="url(#linear-gradient-11)"/>
        </g>
        <rect id="Rectangle_719" data-name="Rectangle 719" width="27.651" height="4.357" transform="translate(72.923 147.83)" fill="url(#linear-gradient-11)"/>
      </g>
      <g id="Groupe_1834" data-name="Groupe 1834" transform="translate(1059.466 437.071)">
        <g id="Groupe_1833" data-name="Groupe 1833" transform="translate(3.473)">
          <rect id="Rectangle_720" data-name="Rectangle 720" width="87.562" height="139.724" fill="#01644c"/>
          <g id="Groupe_1830" data-name="Groupe 1830" transform="translate(10.359 61.058)">
            <path id="Tracé_1560" data-name="Tracé 1560" d="M3668.825,1770.32a25.469,25.469,0,1,1,25.469,25.469A25.468,25.468,0,0,1,3668.825,1770.32Z" transform="translate(-3660.871 -1736.898)" fill="#e65924"/>
            <g id="Groupe_1829" data-name="Groupe 1829">
              <path id="Tracé_1561" data-name="Tracé 1561" d="M3684.818,1727.423a33.421,33.421,0,1,0,33.421,33.42A33.459,33.459,0,0,0,3684.818,1727.423Zm0,61.51a28.087,28.087,0,1,1,28.09-28.09A28.12,28.12,0,0,1,3684.818,1788.934Z" transform="translate(-3651.397 -1727.423)" fill="#002822"/>
            </g>
          </g>
          <g id="Groupe_1832" data-name="Groupe 1832" transform="translate(21.655 7.374)">
            <circle id="Ellipse_286" data-name="Ellipse 286" cx="15.314" cy="15.314" r="15.314" transform="translate(6.812 6.81)" fill="#e65924"/>
            <g id="Groupe_1831" data-name="Groupe 1831">
              <path id="Tracé_1562" data-name="Tracé 1562" d="M3698.275,1609.79a22.125,22.125,0,1,0,22.125,22.125A22.151,22.151,0,0,0,3698.275,1609.79Zm0,39.52a17.4,17.4,0,1,1,17.4-17.4A17.416,17.416,0,0,1,3698.275,1649.31Z" transform="translate(-3676.15 -1609.79)" fill="#002822"/>
            </g>
          </g>
        </g>
        <rect id="Rectangle_721" data-name="Rectangle 721" width="93.851" height="5.688" transform="translate(0 135.515)" fill="#002822"/>
      </g>
      <g id="Groupe_1835" data-name="Groupe 1835" transform="translate(226.561 498.47)">
        <rect id="Rectangle_722" data-name="Rectangle 722" width="5.885" height="22.658" transform="translate(7.221)" fill="#002822"/>
        <path id="Rectangle_723" data-name="Rectangle 723" d="M10.163,0h0A10.164,10.164,0,0,1,20.327,10.164V61.578a1.766,1.766,0,0,1-1.766,1.766H2.133A2.133,2.133,0,0,1,0,61.211V10.163A10.163,10.163,0,0,1,10.163,0Z" transform="translate(0 16.122)" fill="#002822"/>
      </g>
      <g id="Groupe_1836" data-name="Groupe 1836" transform="translate(196.888 510.048)">
        <rect id="Rectangle_724" data-name="Rectangle 724" width="5.027" height="19.357" transform="translate(6.169)" fill="#002822"/>
        <path id="Rectangle_725" data-name="Rectangle 725" d="M8.682,0h0a8.683,8.683,0,0,1,8.683,8.683V52.607a1.509,1.509,0,0,1-1.509,1.509H1.822A1.822,1.822,0,0,1,0,52.293V8.682A8.682,8.682,0,0,1,8.682,0Z" transform="translate(0 13.773)" fill="#002822"/>
      </g>
      <g id="Groupe_1848" data-name="Groupe 1848" transform="translate(309.374)">
        <g id="Groupe_1837" data-name="Groupe 1837">
          <path id="Tracé_1563" data-name="Tracé 1563" d="M2120.281,652.288c-2.277,7.1-4.837,14.641-7.67,22.368,0,0,0,0,0,.009-.925,2.533-1.879,5.1-2.863,7.656-1.384,3.588-2.816,7.206-4.308,10.811-.1.252-.208.5-.312.747v.013a324.394,324.394,0,0,1-19.873,40.549q-.761,1.289-1.535,2.542c-1.115,1.844-2.242,3.614-3.371,5.336a145.368,145.368,0,0,1-8.976,12.325v0c-1.765,2.2-3.557,4.265-5.366,6.16l0,0q-9.95,10.62-20.233,15.413a40.061,40.061,0,0,1-16.016,3.935c-.759.017-1.531.017-2.3,0A66.093,66.093,0,0,1,2015.2,778.6h0a62.373,62.373,0,0,1-7.843-2.286h0c-10.91-3.926-20.936-10.833-29.855-20.55.451-.855.911-1.7,1.388-2.551,11.965,13.383,27.851,23.586,48.661,24.289a37.212,37.212,0,0,0,18.138-4.247c10.347-5.2,19.9-14.832,28.593-26.957,3.635-5.076,7.111-10.6,10.447-16.4a328.788,328.788,0,0,0,17.417-35.924l0-.013c5.818-13.917,10.833-27.942,14.971-40.627Q2118.687,652.8,2120.281,652.288Z" transform="translate(-1977.495 -644.822)" fill="#01644c"/>
          <path id="Tracé_1564" data-name="Tracé 1564" d="M2598.844,637.248a242.8,242.8,0,0,1-11.349,22.61,206.213,206.213,0,0,1-11.279,17.674l-.009.013c-3.031,4.243-6.321,8.472-9.878,12.637l-.009.009c-.781.9-1.566,1.8-2.377,2.7q-1.516,1.7-3.09,3.362l0,0a140.27,140.27,0,0,1-34.293,26.845c-1.978,1.084-3.982,2.121-6.051,3.084l-.014.013a117.852,117.852,0,0,1-13.9,5.635,123.588,123.588,0,0,1-28.571,5.9h0c-.49.047-.986.086-1.488.126-1.87.134-3.74.238-5.592.286-.36.013-.729.022-1.094.017h-.009a106.065,106.065,0,0,1-35.742-5.388h-.009a112,112,0,0,1-29.33-15.049c-.364-.247-.725-.508-1.089-.781a135.218,135.218,0,0,1-17.053-14.737l0,0q-2.877-2.9-5.626-6.017-5.408-6.065-10.476-12.993v-.013q-4.568-6.234-8.855-13.149a256.951,256.951,0,0,1-17.314-33.486q1.308-.313,2.625-.612a254.949,254.949,0,0,0,16.979,32.749q4.73,7.626,9.8,14.407a.013.013,0,0,0,.013.013q4.542,6.124,9.37,11.544l0,0q1.12,1.269,2.269,2.5l.013.013,0,0a137.819,137.819,0,0,0,18.169,16.529c.359.273.724.542,1.089.816,1.162.851,2.321,1.674,3.5,2.477a104.286,104.286,0,0,0,68.161,18.212,122.066,122.066,0,0,0,21-3.418h.013a118.668,118.668,0,0,0,25.79-9.874c.763-.4,1.51-.8,2.26-1.214a141.012,141.012,0,0,0,38.449-31.707c3.227-3.731,6.238-7.535,9.023-11.349v-.013a201.115,201.115,0,0,0,12.329-19.075,241.008,241.008,0,0,0,11-21.855Q2597.526,636.966,2598.844,637.248Z" transform="translate(-2176.92 -635.929)" fill="#01644c"/>
        </g>
        <g id="Groupe_1838" data-name="Groupe 1838" transform="translate(23.302 130.547)">
          <path id="Tracé_1565" data-name="Tracé 1565" d="M2028.883,942.546a6.615,6.615,0,1,1,4.236,8.341A6.615,6.615,0,0,1,2028.883,942.546Z" transform="translate(-2028.555 -930.68)" fill="url(#linear-gradient-5)"/>
          <rect id="Rectangle_726" data-name="Rectangle 726" width="8.172" height="8.172" transform="translate(6.863 0) rotate(18.08)" fill="#01644c"/>
        </g>
        <g id="Groupe_1839" data-name="Groupe 1839" transform="translate(87.185 108.744)">
          <path id="Tracé_1566" data-name="Tracé 1566" d="M2183.773,897.48a6.615,6.615,0,1,1,9.345-.43A6.616,6.616,0,0,1,2183.773,897.48Z" transform="translate(-2175.645 -880.606)" fill="url(#linear-gradient-11)"/>
          <rect id="Rectangle_727" data-name="Rectangle 727" width="8.172" height="8.172" transform="matrix(0.674, -0.739, 0.739, 0.674, 0, 6.038)" fill="#01644c"/>
        </g>
        <g id="Groupe_1840" data-name="Groupe 1840" transform="translate(131.212 29.474)">
          <path id="Tracé_1567" data-name="Tracé 1567" d="M2285.161,717.675a6.615,6.615,0,1,1,8.557-3.781A6.615,6.615,0,0,1,2285.161,717.675Z" transform="translate(-2273.663 -702.891)" fill="url(#linear-gradient-5)"/>
          <rect id="Rectangle_728" data-name="Rectangle 728" width="8.172" height="8.172" transform="translate(0 7.621) rotate(-68.837)" fill="#01644c"/>
        </g>
        <g id="Groupe_1841" data-name="Groupe 1841" transform="translate(191.48 58.49)">
          <path id="Tracé_1568" data-name="Tracé 1568" d="M2399.817,775.132a6.615,6.615,0,1,1-1.51,9.233A6.616,6.616,0,0,1,2399.817,775.132Z" transform="translate(-2397.063 -769.417)" fill="url(#linear-gradient-11)"/>
          <rect id="Rectangle_729" data-name="Rectangle 729" width="8.172" height="8.172" transform="matrix(0.584, 0.812, -0.812, 0.584, 15.036, 0)" fill="#01644c"/>
        </g>
        <g id="Groupe_1842" data-name="Groupe 1842" transform="translate(290.313 100.223)">
          <path id="Tracé_1569" data-name="Tracé 1569" d="M2613.626,876.831a6.615,6.615,0,1,1,6.568,6.662A6.615,6.615,0,0,1,2613.626,876.831Z" transform="translate(-2613.626 -863.542)" fill="url(#linear-gradient-5)"/>
          <rect id="Rectangle_730" data-name="Rectangle 730" width="8.172" height="8.172" transform="translate(2.624 0) rotate(0.405)" fill="#01644c"/>
        </g>
        <g id="Groupe_1843" data-name="Groupe 1843" transform="translate(382.913 53.434)">
          <path id="Tracé_1570" data-name="Tracé 1570" d="M2831.381,776.515a6.615,6.615,0,1,1,9.353-.23A6.615,6.615,0,0,1,2831.381,776.515Z" transform="translate(-2823.486 -759.589)" fill="url(#linear-gradient-11)"/>
          <rect id="Rectangle_731" data-name="Rectangle 731" width="8.172" height="8.172" transform="matrix(0.689, -0.724, 0.724, 0.689, 0, 5.919)" fill="#01644c"/>
        </g>
        <g id="Groupe_1844" data-name="Groupe 1844" transform="translate(466.51 1.901)">
          <path id="Tracé_1571" data-name="Tracé 1571" d="M3254.213,641.414a242.687,242.687,0,0,1-11.348,22.61,206.2,206.2,0,0,1-11.279,17.674l-.008.013c-3.033,4.243-6.321,8.473-9.879,12.637l-.009.009c-.781.9-1.566,1.8-2.377,2.7q-1.516,1.7-3.089,3.362l0,0a140.268,140.268,0,0,1-34.293,26.844c-1.978,1.085-3.982,2.122-6.052,3.085l-.013.013a117.82,117.82,0,0,1-13.9,5.635,123.553,123.553,0,0,1-28.571,5.9h0c-.49.048-.984.087-1.488.126-1.87.135-3.74.239-5.592.286-.36.013-.729.022-1.094.017h-.009a106.056,106.056,0,0,1-35.742-5.388h-.009a111.984,111.984,0,0,1-29.33-15.049c-.365-.247-.724-.507-1.089-.78a135.289,135.289,0,0,1-17.053-14.737l0,0q-2.877-2.9-5.627-6.017-5.407-6.065-10.476-12.993v-.013q-4.568-6.234-8.854-13.149a256.959,256.959,0,0,1-17.313-33.486q1.308-.313,2.625-.612a255.01,255.01,0,0,0,16.98,32.749q4.73,7.626,9.8,14.407a.013.013,0,0,0,.013.013q4.542,6.124,9.371,11.544l0,0q1.119,1.268,2.269,2.5l.013.013,0,0a137.883,137.883,0,0,0,18.169,16.528c.359.273.724.542,1.088.815,1.163.85,2.321,1.674,3.5,2.477a104.283,104.283,0,0,0,68.161,18.211,122.021,122.021,0,0,0,21-3.418h.013a118.652,118.652,0,0,0,25.79-9.874c.763-.4,1.51-.8,2.26-1.214a141.014,141.014,0,0,0,38.449-31.708c3.227-3.73,6.239-7.535,9.023-11.348v-.013a201.325,201.325,0,0,0,12.329-19.075,241.007,241.007,0,0,0,11-21.856C3252.451,641.041,3253.337,641.227,3254.213,641.414Z" transform="translate(-2999.707 -640.095)" fill="#01644c"/>
        </g>
        <g id="Groupe_1845" data-name="Groupe 1845" transform="translate(490.573 60.392)">
          <path id="Tracé_1572" data-name="Tracé 1572" d="M3055.187,779.3a6.615,6.615,0,1,1-1.51,9.233A6.616,6.616,0,0,1,3055.187,779.3Z" transform="translate(-3052.432 -773.583)" fill="url(#linear-gradient-5)"/>
          <rect id="Rectangle_732" data-name="Rectangle 732" width="8.172" height="8.172" transform="translate(15.036 0) rotate(54.285)" fill="#01644c"/>
        </g>
        <g id="Groupe_1846" data-name="Groupe 1846" transform="translate(589.406 102.124)">
          <path id="Tracé_1573" data-name="Tracé 1573" d="M3269,881a6.615,6.615,0,1,1,6.569,6.662A6.615,6.615,0,0,1,3269,881Z" transform="translate(-3268.996 -867.708)" fill="url(#linear-gradient-11)"/>
          <rect id="Rectangle_733" data-name="Rectangle 733" width="8.172" height="8.172" transform="translate(2.624 0) rotate(0.406)" fill="#01644c"/>
        </g>
        <g id="Groupe_1847" data-name="Groupe 1847" transform="translate(682.006 55.336)">
          <path id="Tracé_1574" data-name="Tracé 1574" d="M3486.751,780.681a6.615,6.615,0,1,1,9.352-.23A6.615,6.615,0,0,1,3486.751,780.681Z" transform="translate(-3478.856 -763.755)" fill="url(#linear-gradient-5)"/>
          <rect id="Rectangle_734" data-name="Rectangle 734" width="8.172" height="8.172" transform="translate(0 5.919) rotate(-46.411)" fill="#01644c"/>
        </g>
      </g>
      <g id="Groupe_1852" data-name="Groupe 1852" transform="translate(1039.964 6.285)">
        <path id="Tracé_1575" data-name="Tracé 1575" d="M3597.922,649.7c2.278,7.1,4.836,14.641,7.669,22.368,0,0,0,0,0,.009.924,2.533,1.879,5.1,2.864,7.656,1.384,3.588,2.815,7.206,4.307,10.811.1.252.208.5.313.746v.013a324.409,324.409,0,0,0,19.873,40.549q.761,1.288,1.536,2.542c1.115,1.844,2.242,3.614,3.37,5.336a145.657,145.657,0,0,0,8.975,12.324v0c1.767,2.2,3.558,4.264,5.367,6.16l0,0q9.95,10.62,20.233,15.414a40.063,40.063,0,0,0,16.017,3.935c.76.017,1.531.017,2.3,0A66.126,66.126,0,0,0,3703,776.01h0a62.353,62.353,0,0,0,7.843-2.286h0c10.91-3.926,20.936-10.833,29.855-20.55-.451-.855-.911-1.705-1.388-2.551-11.965,13.384-27.852,23.587-48.661,24.29a37.216,37.216,0,0,1-18.137-4.247c-10.347-5.2-19.9-14.832-28.593-26.957-3.635-5.076-7.11-10.6-10.447-16.4a328.729,328.729,0,0,1-17.417-35.924l0-.013c-5.818-13.917-10.832-27.942-14.971-40.627Q3599.516,650.212,3597.922,649.7Z" transform="translate(-3588.992 -649.7)" fill="#01644c"/>
        <g id="Groupe_1849" data-name="Groupe 1849" transform="translate(113.781 123.081)">
          <path id="Tracé_1576" data-name="Tracé 1576" d="M3843.638,939.957a6.616,6.616,0,1,0-4.236,8.342A6.616,6.616,0,0,0,3843.638,939.957Z" transform="translate(-3829.335 -928.091)" fill="url(#linear-gradient-23)"/>
          <rect id="Rectangle_735" data-name="Rectangle 735" width="8.172" height="8.172" transform="translate(10.305 7.768) rotate(161.918)" fill="#01644c"/>
        </g>
        <g id="Groupe_1850" data-name="Groupe 1850" transform="translate(45.329 101.278)">
          <path id="Tracé_1577" data-name="Tracé 1577" d="M3688.753,894.891a6.615,6.615,0,1,0-9.346-.429A6.616,6.616,0,0,0,3688.753,894.891Z" transform="translate(-3677.679 -878.017)" fill="url(#linear-gradient-24)"/>
          <rect id="Rectangle_736" data-name="Rectangle 736" width="8.172" height="8.172" transform="translate(13.163 11.545) rotate(-132.365)" fill="#01644c"/>
        </g>
        <g id="Groupe_1851" data-name="Groupe 1851" transform="translate(0 22.008)">
          <path id="Tracé_1578" data-name="Tracé 1578" d="M3587.361,715.087a6.616,6.616,0,1,0-8.557-3.781A6.616,6.616,0,0,0,3587.361,715.087Z" transform="translate(-3578.355 -700.303)" fill="url(#linear-gradient-25)"/>
          <rect id="Rectangle_737" data-name="Rectangle 737" width="8.172" height="8.172" transform="translate(12.882 10.571) rotate(-111.164)" fill="#01644c"/>
        </g>
      </g>
    </g>
    <rect id="Rectangle_738" data-name="Rectangle 738" width="1279.671" height="2.738" transform="translate(1156.791 833)" fill="#070707"/>
  </g>
</svg>
